# xmcd
#
# Track frame offsets:
#	150
#	18247
#	35185
#	53932
#	73570
#	91750
#	107362
#	124375
#	143047
#	157905
#	172885
#	190982
#	207920
#	226667
#	246307
#	264487
#	280100
#	297112
#	315782
#	330640
#
# Disc length: 4608 seconds
#
# Revision: 2
# Processed by: cddbd v1.5.2PL0 Copyright (c) Steve Scherf et al.
# Submitted via: audiograbber 1.83.01
#
DISCID=0f11fe14
DTITLE=Various Artist - THC0306
DYEAR=2003
DGENRE=Karaoke
TTITLE0=Darryl Worley - Have You Forgotten (vocals)
TTITLE1=Jimmy Wayne - Stay Gone (vocals)
TTITLE2=Garth Brooks - Why Ain't I Running (vocals)
TTITLE3=Sara Evans - Backseat Of A Greyhound Bus (vocals)
TTITLE4=Mark Wills - When You Think Of Me (vocals)
TTITLE5=Chad Brock - That Was Us (vocals)
TTITLE6=Kellie Coffee - Whatever It Takes (vocals)
TTITLE7=Brett James - After All (vocals)
TTITLE8=Tanya Tucker - Old Weakness (Come On Strong) (vocals)
TTITLE9=Brian McComas - 99.9% (vocals)
TTITLE10=Darryl Worley - Have You Forgotten
TTITLE11=Jimmy Wayne - Stay Gone
TTITLE12=Garth Brooks - Why Ain't I Running
TTITLE13=Sara Evans - Backseat Of A Greyhound Bus
TTITLE14=Mark Wills - When You Think Of Me
TTITLE15=Chad Brock - That Was Us
TTITLE16=Kellie Coffee - Whatever It Takes
TTITLE17=Brett James - After All
TTITLE18=Tanya Tucker - Old Weakness (Come On Strong)
TTITLE19=Brian Mccomas - 99.9%
EXTD=
EXTT0=
EXTT1=
EXTT2=
EXTT3=
EXTT4=
EXTT5=
EXTT6=
EXTT7=
EXTT8=
EXTT9=
EXTT10=
EXTT11=
EXTT12=
EXTT13=
EXTT14=
EXTT15=
EXTT16=
EXTT17=
EXTT18=
EXTT19=
PLAYORDER=
